<svg width="120" height="38" viewBox="0 0 120 38" fill="none" xmlns="http://www.w3.org/2000/svg">
<g clip-path="url(#clip0_224_908)">
<path d="M15.8269 35.9969C14.7084 36.8445 13.4228 37.4425 12.056 37.751C11.269 37.9252 10.4647 38.0088 9.65882 38C8.37285 38.0134 7.09758 37.7641 5.91041 37.2671C4.72325 36.7702 3.64895 36.0359 2.75274 35.109C1.87932 34.1966 1.19293 33.1204 0.732624 31.9419C-0.244452 29.4229 -0.244452 26.627 0.732624 24.108C1.19729 22.9236 1.88297 21.8394 2.75274 20.9138C3.62603 19.9904 4.67594 19.2538 5.83947 18.7483C7.07423 18.2143 8.40625 17.9451 9.7504 17.9578C10.5495 17.9507 11.3473 18.0251 12.1314 18.1798C12.808 18.3195 13.4686 18.5282 14.1031 18.8024C14.6957 19.0651 15.259 19.3899 15.7838 19.7715C16.3055 20.1598 16.8021 20.5811 17.2706 21.0329L15.7838 22.6571C14.9857 21.905 14.0906 21.264 13.1226 20.7514C12.067 20.2279 10.9001 19.9715 9.72346 20.0043C8.72521 19.9921 7.73547 20.1901 6.81791 20.5854C5.90034 20.9807 5.07527 21.5647 4.39576 22.2998C3.71397 23.0346 3.17986 23.895 2.82277 24.8335C2.44872 25.8369 2.26597 26.9021 2.28407 27.9735C2.26688 29.0501 2.44957 30.1205 2.82277 31.1298C3.17588 32.0735 3.71037 32.9381 4.39576 33.6743C5.06463 34.3937 5.8683 34.9733 6.76064 35.3797C7.69176 35.8003 8.70266 36.0127 9.72346 36.0023C10.9041 36.0344 12.0752 35.7819 13.1388 35.266C14.1705 34.721 15.1178 34.028 15.9508 33.2087L17.3783 34.6163C16.8962 35.1148 16.3776 35.5763 15.8269 35.9969Z" fill="black"/>
<path d="M34.2072 23.5774H36.4967L30.2963 38H28.427L22.2535 23.5774H24.5969L29.3913 35.4555L34.2072 23.5774Z" fill="black"/>
<path d="M37.7087 21.3902V19.0406H40.1329V21.3902H37.7087ZM37.8434 38V23.6911H39.9659V38H37.8434Z" fill="black"/>
<path d="M18.6604 21.3902V19.0406H21.0846V21.3902H18.6604ZM18.7951 38V23.6911H20.9176V38H18.7951Z" fill="black"/>
<path d="M42.8587 38V18.6237H44.9811V38H42.8587Z" fill="black"/>
<path d="M49.3607 18.6237H63.8732V22.4134H53.5464V26.3439H62.6342V30.1336H53.5464V34.2049H64.0133V37.9946H49.3607V18.6237Z" fill="black"/>
<path d="M65.554 23.166H69.7396V25.2828C69.9821 24.9596 70.2448 24.6522 70.5261 24.3624C70.816 24.0729 71.1356 23.8152 71.4796 23.5937C71.8376 23.3613 72.2254 23.1792 72.6324 23.0523C73.0976 22.9146 73.5805 22.8471 74.0654 22.852C74.7554 22.8164 75.4448 22.9332 76.0852 23.1941C76.7255 23.4551 77.3011 23.8539 77.7716 24.3624C78.6976 25.4976 79.1649 26.9412 79.0806 28.4066V38H74.8788V29.7438C74.9365 28.9373 74.7011 28.137 74.2162 27.4917C73.9786 27.2343 73.6874 27.0329 73.3633 26.9019C73.0392 26.7708 72.6903 26.7134 72.3415 26.7337C71.9875 26.7159 71.6337 26.7743 71.3039 26.905C70.974 27.0357 70.6758 27.2357 70.4292 27.4917C69.9178 28.125 69.6655 28.9303 69.7235 29.7438V38H65.5378L65.554 23.166Z" fill="black"/>
<path d="M116.267 5.02949V24.0484L102.379 38L116.261 24.043V5.02949H116.267Z" fill="white"/>
<path d="M97.3478 5.0349L83.4602 18.9919V38H102.379L116.261 24.043V5.0349H97.3478ZM105.967 20.5294L102.358 24.1513H92.1171V29.3161H102.395L106.005 25.6943V30.8591L102.395 34.481H86.9671V18.9919H102.379L105.989 15.3646L105.967 20.5294Z" fill="#EA5422"/>
<path d="M118.131 0.205727C118.46 0.204656 118.783 0.301857 119.057 0.485024C119.331 0.668191 119.546 0.929084 119.672 1.23467C119.799 1.54025 119.833 1.87678 119.769 2.20165C119.706 2.52651 119.548 2.8251 119.315 3.0596C119.082 3.2941 118.786 3.45396 118.463 3.51895C118.14 3.58394 117.805 3.55113 117.5 3.42467C117.196 3.29822 116.936 3.0838 116.752 2.80858C116.569 2.53336 116.472 2.20971 116.472 1.87862C116.472 1.43587 116.646 1.01119 116.957 0.697615C117.268 0.384043 117.69 0.20716 118.131 0.205727ZM118.131 0C117.761 0 117.4 0.110179 117.092 0.316604C116.785 0.523029 116.545 0.816428 116.404 1.1597C116.262 1.50297 116.225 1.8807 116.297 2.24511C116.369 2.60953 116.548 2.94427 116.809 3.207C117.07 3.46973 117.403 3.64865 117.766 3.72113C118.129 3.79362 118.504 3.75642 118.846 3.61423C119.188 3.47204 119.48 3.23125 119.685 2.92232C119.89 2.61338 120 2.25017 120 1.87862C119.999 1.38081 119.801 0.903811 119.451 0.551812C119.101 0.199812 118.626 0.00142842 118.131 0Z" fill="black"/>
<path d="M117.576 1.57002V2.58783H117.296V1.57002H116.897V1.31016H117.975V1.57002H117.576Z" fill="black"/>
<path d="M119.02 2.58783V1.7541L118.664 2.29548L118.308 1.7541V2.58783H118.034V1.31016H118.335L118.669 1.85155L119.003 1.31016H119.305V2.58783H119.02Z" fill="black"/>
</g>
<defs>
<clipPath id="clip0_224_908">
<rect width="120" height="38" fill="white"/>
</clipPath>
</defs>
</svg>
