<svg preserveAspectRatio="none" width="100%" height="100%" overflow="visible" style="display: block;" viewBox="0 0 20 20" fill="none" xmlns="http://www.w3.org/2000/svg">
<g id="streamline-plump:mail-send-email-message" clip-path="url(#clip0_0_88)">
<path id="Vector" d="M1.66167 3.05458C1.28375 2.12292 2.13875 1.23458 3.08875 1.56375C6.30958 2.68 12.4317 5.07292 17.8067 8.72375C18.0167 8.86392 18.1889 9.05375 18.308 9.27641C18.4271 9.49908 18.4894 9.74769 18.4894 10.0002C18.4894 10.2527 18.4271 10.5013 18.308 10.724C18.1889 10.9467 18.0167 11.1365 17.8067 11.2767C12.4317 14.9271 6.30958 17.3204 3.08875 18.4367C2.13875 18.7658 1.28375 17.8771 1.66167 16.9454C2.47417 14.9442 3.4025 13.0237 3.86458 12.0942C4.052 11.7191 4.37716 11.4309 4.77208 11.29L8.33333 10L4.77208 8.71042C4.37716 8.56949 4.052 8.28135 3.86458 7.90625C3.4025 6.97667 2.47417 5.05625 1.66167 3.05458Z" stroke="var(--stroke-0, white)" stroke-width="1.5" stroke-linejoin="round"/>
</g>
<defs>
<clipPath id="clip0_0_88">
<rect width="20" height="20" fill="white"/>
</clipPath>
</defs>
</svg>
