<svg preserveAspectRatio="none" width="100%" height="100%" overflow="visible" style="display: block;" viewBox="0 0 170 160" fill="none" xmlns="http://www.w3.org/2000/svg">
<path id="Vector" fill-rule="evenodd" clip-rule="evenodd" d="M91.0714 1.33975C89.2255 0.462064 87.1315 0 85 0C82.8685 0 80.7745 0.462064 78.9286 1.33975L6.07143 37.1099C4.22553 37.9875 2.69267 39.2499 1.62691 40.77C0.561156 42.2902 5.41477e-05 44.0146 0 45.7699V114.23C5.41477e-05 115.985 0.561156 117.71 1.62691 119.23C2.69267 120.75 4.22553 122.012 6.07143 122.89L78.9286 158.66C80.7745 159.538 82.8685 160 85 160C87.1315 160 89.2255 159.538 91.0714 158.66L163.929 122.89C165.774 122.012 167.307 120.75 168.373 119.23C169.439 117.71 170 115.985 170 114.23V45.7699C170 44.0146 169.439 42.2902 168.373 40.77C167.307 39.2499 165.774 37.9875 163.929 37.1099L91.0714 1.33975Z" fill="url(#paint0_linear_0_632)"/>
<defs>
<linearGradient id="paint0_linear_0_632" x1="0" y1="80" x2="170" y2="80" gradientUnits="userSpaceOnUse">
<stop stop-color="#EA7922"/>
<stop offset="1" stop-color="#EA5422"/>
</linearGradient>
</defs>
</svg>
