<svg preserveAspectRatio="none" width="100%" height="100%" overflow="visible" style="display: block;" viewBox="0 0 16 19" fill="none" xmlns="http://www.w3.org/2000/svg">
<g id="Group">
<g id="Vector">
</g>
<path id="Vector_2" d="M14.3333 7.66667C14.3333 13.0833 7.66667 17.6667 7.66667 17.6667C7.66667 17.6667 1 13.0833 1 7.66667C1 5.89856 1.70238 4.20286 2.95262 2.95262C4.20286 1.70238 5.89856 1 7.66667 1C9.43478 1 11.1305 1.70238 12.3807 2.95262C13.631 4.20286 14.3333 5.89856 14.3333 7.66667Z" stroke="var(--stroke-0, white)" stroke-width="1.5"/>
<path id="Vector_3" d="M10.1667 7.66667C10.1667 8.32971 9.90328 8.96559 9.43443 9.43443C8.96559 9.90327 8.32971 10.1667 7.66667 10.1667C7.00363 10.1667 6.36774 9.90327 5.8989 9.43443C5.43006 8.96559 5.16667 8.32971 5.16667 7.66667C5.16667 7.00363 5.43006 6.36774 5.8989 5.8989C6.36774 5.43006 7.00363 5.16667 7.66667 5.16667C8.32971 5.16667 8.96559 5.43006 9.43443 5.8989C9.90328 6.36774 10.1667 7.00363 10.1667 7.66667Z" stroke="var(--stroke-0, white)" stroke-width="1.5"/>
</g>
</svg>
