<svg preserveAspectRatio="none" width="100%" height="100%" overflow="visible" style="display: block;" viewBox="0 0 20 20" fill="none" xmlns="http://www.w3.org/2000/svg">
<g id="ph:seal-check-light">
<path id="Vector" d="M17.5328 8.14062C17.2281 7.82266 16.9133 7.49453 16.7867 7.18906C16.6695 6.90547 16.6633 6.48594 16.6562 6.04219C16.6453 5.30937 16.6328 4.47969 16.0766 3.92344C15.5203 3.36719 14.6875 3.35469 13.9578 3.34375C13.5141 3.33672 13.0984 3.33047 12.8109 3.21328C12.5055 3.08672 12.1773 2.77188 11.8594 2.46719C11.3406 1.97031 10.7531 1.40625 10 1.40625C9.24687 1.40625 8.65937 1.97031 8.14062 2.46719C7.82266 2.77188 7.49453 3.08672 7.18906 3.21328C6.90547 3.33047 6.48594 3.33672 6.04219 3.34375C5.30937 3.35469 4.47969 3.36719 3.92344 3.92344C3.36719 4.47969 3.35469 5.3125 3.34375 6.04219C3.33672 6.48594 3.33047 6.90156 3.21328 7.18906C3.08672 7.49453 2.77188 7.82266 2.46719 8.14062C1.97031 8.65937 1.40625 9.24687 1.40625 10C1.40625 10.7531 1.97031 11.3406 2.46719 11.8594C2.77188 12.1773 3.08672 12.5055 3.21328 12.8109C3.33047 13.0945 3.33672 13.5141 3.34375 13.9578C3.35469 14.6906 3.36719 15.5203 3.92344 16.0766C4.47969 16.6328 5.3125 16.6453 6.04219 16.6562C6.48594 16.6633 6.90156 16.6695 7.18906 16.7867C7.49453 16.9133 7.82266 17.2281 8.14062 17.5328C8.65937 18.0297 9.24687 18.5938 10 18.5938C10.7531 18.5938 11.3406 18.0297 11.8594 17.5328C12.1773 17.2281 12.5055 16.9133 12.8109 16.7867C13.0945 16.6695 13.5141 16.6633 13.9578 16.6562C14.6906 16.6453 15.5203 16.6328 16.0766 16.0766C16.6328 15.5203 16.6453 14.6906 16.6562 13.9578C16.6633 13.5141 16.6695 13.0984 16.7867 12.8109C16.9133 12.5055 17.2281 12.1773 17.5328 11.8594C18.0297 11.3406 18.5938 10.7531 18.5938 10C18.5938 9.24687 18.0297 8.65937 17.5328 8.14062ZM16.8562 11.2109C16.4914 11.5906 16.1141 11.9844 15.9187 12.4531C15.7328 12.9016 15.725 13.4312 15.7172 13.9437C15.7086 14.525 15.6992 15.1266 15.4125 15.4141C15.1258 15.7016 14.5234 15.7102 13.9422 15.7187C13.4297 15.7266 12.9 15.7344 12.4516 15.9203C11.9828 16.1141 11.5922 16.4914 11.2086 16.8578C10.7984 17.2484 10.3742 17.6578 9.99844 17.6578C9.62266 17.6578 9.19844 17.2508 8.7875 16.8578C8.40781 16.493 8.01406 16.1156 7.54531 15.9203C7.09688 15.7344 6.56719 15.7266 6.05469 15.7187C5.47344 15.7102 4.87188 15.7008 4.58438 15.4141C4.29688 15.1273 4.28828 14.525 4.27969 13.9437C4.27187 13.4312 4.26406 12.9016 4.07813 12.4531C3.88438 11.9844 3.50703 11.5938 3.14063 11.2102C2.75078 10.8 2.34375 10.3758 2.34375 10C2.34375 9.62422 2.75078 9.2 3.14375 8.78906C3.50859 8.40937 3.88594 8.01562 4.08125 7.54687C4.26719 7.09844 4.275 6.56875 4.28281 6.05625C4.29141 5.475 4.30078 4.87344 4.5875 4.58594C4.87422 4.29844 5.47656 4.28984 6.05781 4.28125C6.57031 4.27344 7.1 4.26563 7.54844 4.07969C8.01719 3.88594 8.40781 3.50859 8.79141 3.14219C9.2 2.75078 9.62422 2.34375 10 2.34375C10.3758 2.34375 10.8 2.75078 11.2109 3.14375C11.5906 3.50859 11.9844 3.88594 12.4531 4.08125C12.9016 4.26719 13.4312 4.275 13.9437 4.28281C14.525 4.29141 15.1266 4.30078 15.4141 4.5875C15.7016 4.87422 15.7102 5.47656 15.7187 6.05781C15.7266 6.57031 15.7344 7.1 15.9203 7.54844C16.1141 8.01719 16.4914 8.40781 16.8578 8.79141C17.2484 9.20156 17.6578 9.62578 17.6578 10.0016C17.6578 10.3773 17.2492 10.8 16.8562 11.2109ZM13.4563 7.79375C13.544 7.88164 13.5933 8.00078 13.5933 8.125C13.5933 8.24922 13.544 8.36836 13.4563 8.45625L9.08125 12.8313C8.99336 12.919 8.87422 12.9683 8.75 12.9683C8.62578 12.9683 8.50664 12.919 8.41875 12.8313L6.54375 10.9563C6.46095 10.8674 6.41587 10.7499 6.41802 10.6284C6.42016 10.507 6.46935 10.3911 6.55524 10.3052C6.64112 10.2194 6.75699 10.1702 6.87842 10.168C6.99986 10.1659 7.11739 10.2109 7.20625 10.2937L8.75 11.8367L12.7937 7.79375C12.8816 7.70597 13.0008 7.65666 13.125 7.65666C13.2492 7.65666 13.3684 7.70597 13.4563 7.79375Z" fill="var(--fill-0, #2E2D2D)"/>
</g>
</svg>
